<svg xmlns="http://www.w3.org/2000/svg" width="28" height="28" id="computer"><circle cx="14" cy="14" r="14" fill="#0097b2" fill-rule="evenodd"></circle><path fill="#fff" d="M9.063 8A2.064 2.064 0 0 0 7 10.063v6.874C7 18.076 7.925 19 9.063 19H12v1h-1v1h6v-1h-1v-1h2.938A2.065 2.065 0 0 0 21 16.937v-6.875A2.065 2.065 0 0 0 18.937 8H9.063zm0 1h9.874C19.523 9 20 9.476 20 10.063v6.874c0 .586-.477 1.063-1.063 1.063H9.063A1.064 1.064 0 0 1 8 16.937v-6.875C8 9.477 8.476 9 9.063 9ZM13 19h2v1h-2v-1z"></path></svg>